<svg xmlns="http://www.w3.org/2000/svg" viewBox="0 0 32 32">
  <circle cx="16" cy="16" r="16" fill="#1ed760" />
  <path
    transform="translate(4 4)"
    fill="#0d120f"
    d="M12 0C5.373 0 0 5.373 0 12s5.373 12 12 12 12-5.373 12-12S18.627 0 12 0zm5.29 17.34a.747.747 0 0 1-1.03.25c-2.82-1.72-6.37-2.11-10.55-1.16a.75.75 0 1 1-.33-1.46c4.57-1.04 8.5-.59 11.66 1.34.35.21.46.67.25 1.03zm1.47-3.27a.936.936 0 0 1-1.29.31c-3.23-1.98-8.15-2.56-11.97-1.4a.937.937 0 0 1-.55-1.79c4.37-1.33 9.8-.68 13.5 1.6.44.27.58.85.31 1.28zm.13-3.41C15.05 8.36 8.61 8.15 4.94 9.27a1.125 1.125 0 0 1-.66-2.15c4.22-1.28 11.28-1.03 15.72 1.6a1.125 1.125 0 0 1-1.1 1.94z"
  />
</svg>
